<svg xmlns="http://www.w3.org/2000/svg" xmlns:xlink="http://www.w3.org/1999/xlink" width="24" height="24" viewBox="0 0 6.35 6.35"><defs><linearGradient id="c"><stop offset="0" style="stop-color:#006835;stop-opacity:1"/><stop offset="1" style="stop-color:#003f20;stop-opacity:1"/></linearGradient><linearGradient id="b"><stop offset="0" style="stop-color:#00eb76;stop-opacity:1"/><stop offset="1" style="stop-color:#00ebb4;stop-opacity:1"/></linearGradient><linearGradient id="a"><stop offset="0" style="stop-color:#008543;stop-opacity:1"/><stop offset="1" style="stop-color:#00b288;stop-opacity:1"/></linearGradient><linearGradient xlink:href="#a" id="e" x1="5.138" x2="1.19" y1="5.429" y2="1.231" gradientUnits="userSpaceOnUse"/><linearGradient xlink:href="#b" id="f" x1="1.19" x2="5.138" y1="1.231" y2="5.429" gradientUnits="userSpaceOnUse"/><linearGradient xlink:href="#c" id="d" x1=".792" x2="5.676" y1="4.914" y2="5.626" gradientUnits="userSpaceOnUse"/></defs><path d="m3.13 1.017-.132 3.32a.762.762 0 0 1-.26.571.829.829 0 0 1-.537.19.825.825 0 0 1-.535-.19.762.762 0 0 1-.26-.57V3.39l-.367-.733-.365.733v.959c.018.48.215.854.502 1.101a1.57 1.57 0 0 0 1.025.37c.37 0 .741-.123 1.028-.37.286-.247.481-.621.5-1.101v-.835l1.334 2.311h.613v-.4Z" style="fill:url(#d);fill-rule:evenodd;paint-order:stroke fill markers"/><path d="m3.13 1.017-.132 3.057a.758.758 0 0 1-.26.569.83.83 0 0 1-.537.19.826.826 0 0 1-.535-.19.758.758 0 0 1-.26-.569v-.683l-.132-.535L1.1 2.66l-.06-.068H.807l-.133.799v.693c.018.48.215.856.502 1.103.286.247.656.368 1.025.368.37 0 .741-.12 1.028-.368.286-.247.481-.623.5-1.103V3.25l1.334 2.312h.613v-.4Z" style="fill:url(#e);fill-rule:evenodd;paint-order:stroke fill markers"/><path d="M3.13 1.017V4.08c-.055 1.182-1.801 1.182-1.856 0V2.856l-.234-.264H.807V4.08c.068 1.791 2.722 1.791 2.79 0V2.76l1.541 2.67h.405v-.232z" style="fill:url(#f);fill-rule:evenodd;paint-order:stroke fill markers"/></svg>