<svg xmlns="http://www.w3.org/2000/svg" xmlns:xlink="http://www.w3.org/1999/xlink" width="18.904" height="18.904" viewBox="0 0 5.002 5.002"><defs><linearGradient id="c"><stop offset="0" style="stop-color:#006835;stop-opacity:1"/><stop offset="1" style="stop-color:#003f20;stop-opacity:1"/></linearGradient><linearGradient id="b"><stop offset="0" style="stop-color:#00eb76;stop-opacity:1"/><stop offset="1" style="stop-color:#00ebb4;stop-opacity:1"/></linearGradient><linearGradient id="a"><stop offset="0" style="stop-color:#008543;stop-opacity:1"/><stop offset="1" style="stop-color:#00b288;stop-opacity:1"/></linearGradient><linearGradient xlink:href="#a" id="e" x1="5.138" x2="1.19" y1="5.429" y2="1.231" gradientTransform="matrix(1 0 0 1.04016 -.674 -1.058)" gradientUnits="userSpaceOnUse"/><linearGradient xlink:href="#b" id="f" x1="1.19" x2="5.138" y1="1.231" y2="5.429" gradientTransform="matrix(1 0 0 1.04016 -.674 -1.058)" gradientUnits="userSpaceOnUse"/><linearGradient xlink:href="#c" id="d" x1=".792" x2="5.676" y1="4.914" y2="5.626" gradientTransform="matrix(1 0 0 1.04016 -.674 -1.058)" gradientUnits="userSpaceOnUse"/></defs><path d="m2.381 0-.057 3.454c-.012.273-.114.463-.26.593a.81.81 0 0 1-.536.197.805.805 0 0 1-.536-.197c-.145-.13-.248-.32-.26-.593v-.986l-.367-.761L0 2.468v.998c.018.5.215.89.502 1.146.286.257.656.384 1.026.384.369 0 .74-.127 1.027-.384.286-.257.481-.646.5-1.146v-.868l1.334 2.404h.613v-.416Z" style="fill:url(#d);fill-rule:evenodd;stroke-width:1.01988;paint-order:stroke fill markers"/><path d="M2.381 0 2.25 3.18c-.013.273-.04.461-.186.59a.81.81 0 0 1-.536.2.807.807 0 0 1-.536-.2c-.145-.129-.248-.317-.26-.59v-.712L.6 1.913l-.174-.205-.06-.07H.133L0 2.468v.722c.018.5.215.89.502 1.147a1.53 1.53 0 0 0 1.026.382c.369 0 .74-.125 1.027-.382.286-.257.407-.648.425-1.147v-.868l1.409 2.406h.613V4.31z" style="fill:url(#e);fill-rule:evenodd;stroke-width:1.01988;paint-order:stroke fill markers"/><path d="M2.381 0v3.185a.891.891 0 0 1-1.78 0V1.913l-.235-.275H.133v1.547c.068 1.863 2.647 1.863 2.715 0V1.811L4.39 4.589h.405v-.241Z" style="fill:url(#f);fill-rule:evenodd;stroke-width:1.01988;paint-order:stroke fill markers"/></svg>